<svg xmlns="http://www.w3.org/2000/svg" viewBox="0 0 64 64" role="img" aria-labelledby="title desc">
  <title id="title">CoLiPas云服务器管理面板 icon</title>
  <desc id="desc">A clear cloud terminal mark on a teal and blue rounded square.</desc>
  <defs>
    <linearGradient id="colipas-bg" x1="7" y1="5" x2="57" y2="60" gradientUnits="userSpaceOnUse">
      <stop offset="0" stop-color="#0f766e"/>
      <stop offset="0.48" stop-color="#0ea5a5"/>
      <stop offset="1" stop-color="#2563eb"/>
    </linearGradient>
    <linearGradient id="colipas-cloud" x1="16" y1="17" x2="50" y2="46" gradientUnits="userSpaceOnUse">
      <stop offset="0" stop-color="#ffffff"/>
      <stop offset="1" stop-color="#dff9ff"/>
    </linearGradient>
  </defs>
  <rect x="4" y="4" width="56" height="56" rx="14" fill="url(#colipas-bg)"/>
  <rect x="4" y="4" width="56" height="56" rx="14" fill="none" stroke="rgba(255,255,255,.34)" stroke-width="2"/>
  <path d="M19.2 43.5h26.6c5.9 0 10.7-4.2 10.7-9.8 0-5.1-3.9-9.2-8.9-9.7C45.4 18 39.8 14.2 33.2 14.2c-7.2 0-13.1 4.8-14.7 11.4C12.4 26.2 7.8 31 7.8 36.9c0 3.8 1.9 7.1 4.8 9.1 1.9-1.6 4.1-2.5 6.6-2.5Z" fill="url(#colipas-cloud)" opacity=".96"/>
  <path d="M21.6 33.1 27 37.2l-5.4 4.1" fill="none" stroke="#0f766e" stroke-width="4.2" stroke-linecap="round" stroke-linejoin="round"/>
  <path d="M33.2 41.2h11.5" fill="none" stroke="#2563eb" stroke-width="4.2" stroke-linecap="round"/>
  <circle cx="45.5" cy="22.8" r="3.4" fill="#67e8f9"/>
  <circle cx="45.5" cy="22.8" r="1.5" fill="#0f766e"/>
</svg>
